<svg width="80" height="80" viewBox="0 0 80 80" fill="none" xmlns="http://www.w3.org/2000/svg">
<path d="M0 22.2C0 9.93928 9.93928 0 22.2 0H57.8C70.0607 0 80 9.93928 80 22.2V57.8C80 70.0607 70.0607 80 57.8 80H0V22.2Z" fill="#0C3B7C"/>
<path fill-rule="evenodd" clip-rule="evenodd" d="M66.5506 24.9067C66.5506 19.2553 61.9603 14.667 56.3088 14.667H22.2593C16.6079 14.667 12.0176 19.2553 12.0176 24.9067V57.7601C12.0176 63.4101 16.6079 67.9999 22.2594 67.9999H56.3088C61.9603 67.9999 66.5506 63.4101 66.5506 57.7601L66.5506 24.9067Z" fill="#0C3B7C"/>
<path fill-rule="evenodd" clip-rule="evenodd" d="M12.0205 47.8H39.2565V67.9999H12.0205L12.0205 47.8Z" fill="#0C3B7C"/>
<path fill-rule="evenodd" clip-rule="evenodd" d="M36.8014 49.9686L32.4092 49.9642V44.7123C32.4092 43.5902 32.8445 43.0061 33.8047 42.8727H36.8014C38.9385 42.8727 40.3209 44.2201 40.3209 46.4009C40.3209 48.6408 38.9735 49.9664 36.8014 49.9686H36.8014ZM32.4092 35.8032V34.4207C32.4092 33.2111 32.921 32.6358 34.0431 32.5615H36.2918C38.2188 32.5615 39.3738 33.7142 39.3738 35.6457C39.3738 37.1156 38.582 38.8327 36.3618 38.8327H32.4092V35.8032ZM42.4099 41.0441L41.6158 40.5978L42.3093 40.0051C43.1164 39.3116 44.4682 37.7521 44.4682 35.0616C44.4682 30.9406 41.2724 28.2829 36.3268 28.2829H30.6833V28.2807H30.0402C28.5747 28.3354 27.4001 29.5275 27.3848 31.0018V54.3849H36.4383C41.9352 54.3849 45.4831 51.3925 45.4831 46.7575C45.4831 44.2617 44.3369 42.129 42.4099 41.0441Z" fill="white"/>
<path fill-rule="evenodd" clip-rule="evenodd" d="M47.8418 51.1547C47.8418 49.3685 49.2825 47.9233 51.0575 47.9233C52.837 47.9233 54.2844 49.3685 54.2844 51.1547C54.2844 52.9387 52.837 54.3861 51.0575 54.3861C49.2825 54.3861 47.8418 52.9387 47.8418 51.1547" fill="#00BAFC"/>
</svg>
